<?xml version="1.0" encoding="utf-8"?>
<!-- Generator: Adobe Illustrator 24.0.2, SVG Export Plug-In . SVG Version: 6.00 Build 0)  -->
<svg version="1.1" id="Layer_1" xmlns="http://www.w3.org/2000/svg" xmlns:xlink="http://www.w3.org/1999/xlink" x="0px" y="0px"
	 viewBox="0 0 479.4 278.5" style="enable-background:new 0 0 479.4 278.5;" xml:space="preserve">
<style type="text/css">
	.st0{fill:#FFFFFF;stroke:#0F2F81;stroke-miterlimit:10;}
	.st1{fill:#2EA8FF;}
	.st2{fill:#4E74FF;}
	.st3{fill:#0F2F81;}
	.st4{font-family:'WorkSans-Bold';}
	.st5{font-size:56.923px;}
	.st6{font-size:200.1202px;}
</style>
<rect x="0.2" y="39.9" class="st0" width="479" height="178.6"/>
<title>Brobit</title>
<g>
	<rect x="62" y="137.2" class="st1" width="66" height="48"/>
	<rect x="96" y="137.2" class="st2" width="32" height="48"/>
	<rect x="63" y="80.2" class="st1" width="67" height="48"/>
	<rect x="63" y="80.2" class="st2" width="33" height="48"/>
	<text transform="matrix(1 0 0 1 162.8037 143.975)" class="st3 st4 st5">r</text>
	<text transform="matrix(1 0 0 1 187.7974 143.975)" class="st3 st4 st5">o</text>
	<text transform="matrix(1 0 0 1 222.6846 143.975)" class="st3 st4 st5">t</text>
	<text transform="matrix(1 0 0 1 248.9863 143.975)" class="st3 st4 st5">he</text>
	<text transform="matrix(1 0 0 1 319.1123 143.975)" class="st3 st4 st5">r</text>
	<text transform="matrix(1 0 0 1 343.9863 143.975)" class="st3 st4 st5">s</text>
	<text transform="matrix(1 0 0 1 375.0674 143.975)" class="st3 st4 st5">Bit</text>
	<text transform="matrix(1.2 0 0 1 13.0005 198.2968)" class="st3 st4 st6">B</text>
	<rect x="156" y="151.2" class="st3" width="301" height="6"/>
</g>
</svg>
